<?xml version="1.0" encoding="utf-8"?>
<!-- Generator: Adobe Illustrator 16.0.0, SVG Export Plug-In . SVG Version: 6.00 Build 0)  -->
<!DOCTYPE svg PUBLIC "-//W3C//DTD SVG 1.1//EN" "http://www.w3.org/Graphics/SVG/1.1/DTD/svg11.dtd">
<svg version="1.1" id="Layer_1" xmlns="http://www.w3.org/2000/svg" xmlns:xlink="http://www.w3.org/1999/xlink" x="0px" y="0px"
	 width="1250px" height="110px" viewBox="0 0 1250 110" enable-background="new 0 0 1250 110" xml:space="preserve">
<g>
	<g id="LWPOLYLINE_7_">
		<polygon fill="#FFFFFF" points="735.001,105 710.001,105 710.001,5 785.001,5 785.001,42.5 776.666,55 785.001,67.5 785.001,105 
			760.001,105 760.001,63.333 735.001,63.333 		"/>
	</g>
	<g id="LWPOLYLINE_12_">
		<polygon fill="#FFFFFF" points="797.5,5 872.5,5 872.5,105 847.5,105 847.5,63.333 822.5,63.333 822.5,105 797.5,105 		"/>
	</g>
	<g id="LWPOLYLINE_6_">
		<polygon fill="#FFFFFF" points="5.833,5 80.833,5 80.833,105 55.833,105 55.833,63.333 30.833,63.333 30.833,105 5.833,105 		"/>
	</g>
	<g id="LWPOLYLINE">
		<rect x="30.833" y="21.667" fill="#336699" width="25" height="25"/>
	</g>
	<g id="LWPOLYLINE_1_">
		<rect x="435" y="5" fill="#FFFFFF" width="25" height="100"/>
	</g>
	<g id="LWPOLYLINE_2_">
		<rect x="472.5" y="46.667" fill="#FFFFFF" width="50" height="16.666"/>
	</g>
	<g id="LWPOLYLINE_3_">
		<rect x="735.001" y="21.667" fill="#336699" width="25" height="25"/>
	</g>
	<g id="LWPOLYLINE_4_">
		<rect x="822.5" y="21.667" fill="#336699" width="25" height="25"/>
	</g>
	<g id="LWPOLYLINE_5_">
		<rect x="1052.5" y="5" fill="#FFFFFF" width="25.001" height="100"/>
	</g>
	<g id="LWPOLYLINE_8_">
		<polygon fill="#FFFFFF" points="1177.501,5 1177.501,105 1244.167,105 1244.167,88.333 1202.501,88.333 1202.501,63.333 
			1244.167,63.333 1244.167,46.667 1202.501,46.667 1202.501,21.667 1244.167,21.667 1244.167,5 		"/>
	</g>
	<g id="LWPOLYLINE_9_">
		<polygon fill="#FFFFFF" points="1135.834,46.667 1115.001,5 1090.001,5 1090.001,105 1115.001,105 1115.001,63.333 
			1119.167,63.333 1140.001,105 1165.001,105 1165.001,5 1140.001,5 1140.001,46.667 		"/>
	</g>
	<g id="LWPOLYLINE_10_">
		<polygon fill="#FFFFFF" points="967.501,105 1042.5,105 1042.5,88.333 992.5,88.333 992.5,5 967.501,5 		"/>
	</g>
	<g id="LWPOLYLINE_11_">
		<polygon fill="#FFFFFF" points="932.5,63.333 932.5,105 907.5,105 907.5,63.333 882.5,46.667 882.5,21.667 882.5,5 907.5,5 
			907.5,21.667 907.5,46.667 932.5,46.667 932.5,21.667 932.5,5 957.501,5 957.501,21.667 957.501,46.667 		"/>
	</g>
	<g id="LWPOLYLINE_13_">
		<polygon fill="#FFFFFF" points="697.5,5 697.5,21.667 672.5,21.667 672.5,105 647.5,105 647.5,21.667 622.5,21.667 622.5,5 		"/>
	</g>
	<g id="LWPOLYLINE_14_">
		<polygon fill="#FFFFFF" points="535,5 535,63.333 585,63.333 585,88.333 535,88.333 535,105 610,105 610,46.667 560,46.667 
			560,21.667 610,21.667 610,5 		"/>
	</g>
	<g id="LWPOLYLINE_15_">
		<polygon fill="#FFFFFF" points="347.5,105 372.5,105 385,63.333 397.5,105 422.5,105 407.5,55 422.5,5 397.5,5 385,46.667 
			372.5,5 347.5,5 362.5,55 		"/>
	</g>
	<g id="LWPOLYLINE_16_">
		<polygon fill="#FFFFFF" points="139.167,46.667 118.333,5 93.333,5 93.333,105 118.333,105 118.333,63.333 122.5,63.333 
			143.333,105 168.333,105 168.333,5 143.333,5 143.333,46.667 		"/>
	</g>
	<g id="LWPOLYLINE_17_">
		<polygon fill="#FFFFFF" points="226.667,46.667 205.833,5 180.833,5 180.833,105 205.833,105 205.833,63.333 210,63.333 
			230.833,105 255.833,105 255.833,5 230.833,5 230.833,46.667 		"/>
	</g>
	<g id="LWPOLYLINE_18_">
		<polygon fill="#FFFFFF" points="268.333,5 268.333,105 335,105 335,88.333 293.333,88.333 293.333,63.333 335,63.333 335,46.667 
			293.333,46.667 293.333,21.667 335,21.667 335,5 		"/>
	</g>
</g>
</svg>
